<?xml version="1.0" standalone="no"?>
<svg viewBox="0 0 200 200" xmlns="http://www.w3.org/2000/svg">
  <path fill="#96ED8F" d="M40.9,-69.1C53.5,-63.6,64.5,-53.6,67.2,-41.4C69.8,-29.1,64.1,-14.5,59.8,-2.4C55.6,9.7,52.9,19.3,48.9,29.3C45,39.2,39.7,49.4,31.3,54.3C23,59.2,11.5,58.7,-2,62.2C-15.5,65.7,-31.1,73.2,-44.8,71.5C-58.5,69.7,-70.3,58.6,-73.4,45.1C-76.5,31.6,-70.8,15.8,-71.5,-0.4C-72.1,-16.6,-79.1,-33.2,-74.4,-43.8C-69.7,-54.5,-53.3,-59.2,-39,-63.7C-24.6,-68.2,-12.3,-72.4,0.9,-74C14.2,-75.6,28.3,-74.6,40.9,-69.1Z" transform="translate(100 100)" />
</svg>
